<svg width="80" height="80" viewBox="0 0 80 80" fill="none" xmlns="http://www.w3.org/2000/svg">
<circle cx="40" cy="40" r="40" fill="#F5F5FF"/>
<path d="M62.4077 55.8564H61.0685V21.5923C61.0685 20.7131 60.3554 20 59.4762 20H51.2286C50.3494 20 49.6363 20.7131 49.6363 21.5923V55.8564H45.7157V33.5168C45.7157 32.6376 45.003 31.9245 44.1238 31.9245H35.8758C34.9966 31.9245 34.2839 32.6376 34.2839 33.5168V55.8564H30.3629V30.5922C30.3629 29.7129 29.6498 29.0003 28.7706 29.0003H20.523C19.6434 29.0003 18.9307 29.7129 18.9307 30.5922V55.8564H17.5923C16.7127 55.8564 16 56.5691 16 57.4483C16 58.3279 16.7127 59.0406 17.5923 59.0406H62.4077C63.2869 59.0406 64 58.3279 64 57.4483C64 56.5691 63.2869 55.8564 62.4077 55.8564V55.8564ZM52.8205 23.1842H57.8843V55.8564H52.8205V23.1842ZM37.4681 35.1087H42.5315V55.8564H37.4681V35.1087ZM22.1149 32.1844H27.1783V55.8564H22.1149V32.1844Z" fill="url(#paint0_linear)"/>
<defs>
<linearGradient id="paint0_linear" x1="40" y1="20" x2="40" y2="59.0406" gradientUnits="userSpaceOnUse">
<stop stop-color="#FF4DFF"/>
<stop offset="1" stop-color="#4A4EFF"/>
</linearGradient>
</defs>
</svg>
